<svg width="24" height="24" viewBox="0 0 24 24" fill="none" xmlns="http://www.w3.org/2000/svg">
<path d="M11.9999 3.75005C10.2199 3.75005 8.47984 4.27789 6.9998 5.26682C5.51975 6.25576 4.3662 7.66136 3.68501 9.3059C3.00382 10.9504 2.82559 12.76 3.17286 14.5059C3.52013 16.2517 4.3773 17.8553 5.63597 19.114C6.89464 20.3727 8.49829 21.2298 10.2441 21.5771C11.9899 21.9244 13.7995 21.7462 15.4441 21.065C17.0886 20.3838 18.4942 19.2302 19.4832 17.7502C20.4721 16.2701 20.9999 14.5301 20.9999 12.75C20.9972 10.3639 20.0481 8.07634 18.3609 6.3891C16.6736 4.70187 14.386 3.75278 11.9999 3.75005ZM11.9999 20.25C10.5166 20.25 9.06652 19.8102 7.83315 18.9861C6.59978 18.162 5.63849 16.9906 5.07083 15.6202C4.50318 14.2497 4.35465 12.7417 4.64404 11.2869C4.93343 9.83202 5.64773 8.49564 6.69663 7.44675C7.74552 6.39786 9.08189 5.68355 10.5368 5.39416C11.9916 5.10477 13.4996 5.2533 14.8701 5.82095C16.2405 6.38861 17.4118 7.34991 18.236 8.58327C19.0601 9.81664 19.4999 11.2667 19.4999 12.75C19.4977 14.7385 18.7068 16.6448 17.3008 18.0509C15.8947 19.4569 13.9884 20.2478 11.9999 20.25ZM5.78055 3.53068L2.78055 6.53068C2.63982 6.67141 2.44895 6.75047 2.24993 6.75047C2.05091 6.75047 1.86003 6.67141 1.7193 6.53068C1.57857 6.38995 1.49951 6.19907 1.49951 6.00005C1.49951 5.80103 1.57857 5.61016 1.7193 5.46943L4.7193 2.46943C4.86003 2.3287 5.05091 2.24963 5.24993 2.24963C5.44895 2.24963 5.63982 2.3287 5.78055 2.46943C5.92128 2.61016 6.00035 2.80103 6.00035 3.00005C6.00035 3.19907 5.92128 3.38995 5.78055 3.53068ZM22.2806 6.53068C22.2109 6.60041 22.1282 6.65573 22.0371 6.69347C21.9461 6.73121 21.8485 6.75064 21.7499 6.75064C21.6514 6.75064 21.5538 6.73121 21.4627 6.69347C21.3717 6.65573 21.289 6.60041 21.2193 6.53068L18.2193 3.53068C18.0786 3.38995 17.9995 3.19907 17.9995 3.00005C17.9995 2.80103 18.0786 2.61016 18.2193 2.46943C18.36 2.3287 18.5509 2.24963 18.7499 2.24963C18.949 2.24963 19.1398 2.3287 19.2806 2.46943L22.2806 5.46943C22.3503 5.53908 22.4056 5.6218 22.4433 5.71285C22.4811 5.80389 22.5005 5.90149 22.5005 6.00005C22.5005 6.09861 22.4811 6.19621 22.4433 6.28726C22.4056 6.3783 22.3503 6.46102 22.2806 6.53068ZM17.2499 12C17.4488 12 17.6396 12.0791 17.7803 12.2197C17.9209 12.3604 17.9999 12.5511 17.9999 12.75C17.9999 12.949 17.9209 13.1397 17.7803 13.2804C17.6396 13.421 17.4488 13.5 17.2499 13.5H11.9999C11.801 13.5 11.6103 13.421 11.4696 13.2804C11.3289 13.1397 11.2499 12.949 11.2499 12.75V7.50005C11.2499 7.30114 11.3289 7.11037 11.4696 6.96972C11.6103 6.82907 11.801 6.75005 11.9999 6.75005C12.1988 6.75005 12.3896 6.82907 12.5303 6.96972C12.6709 7.11037 12.7499 7.30114 12.7499 7.50005V12H17.2499Z" fill="black"/>
</svg>
