<svg width="24" height="24" viewBox="0 0 24 24" fill="none" xmlns="http://www.w3.org/2000/svg">
<path d="M2.99999 12.0001C2.99999 11.8012 3.07901 11.6104 3.21966 11.4697C3.36031 11.3291 3.55108 11.2501 3.74999 11.2501L18.4397 11.2501L12.9694 5.7807C12.8997 5.71101 12.8444 5.62829 12.8067 5.53724C12.769 5.4462 12.7496 5.34862 12.7496 5.25007C12.7496 5.15152 12.769 5.05394 12.8067 4.9629C12.8444 4.87185 12.8997 4.78913 12.9694 4.71944C13.039 4.64976 13.1218 4.59449 13.2128 4.55678C13.3039 4.51906 13.4014 4.49965 13.5 4.49965C13.5985 4.49965 13.6961 4.51906 13.7872 4.55678C13.8782 4.59449 13.9609 4.64976 14.0306 4.71944L20.7806 11.4694C20.8503 11.5391 20.9057 11.6218 20.9434 11.7129C20.9812 11.8039 21.0006 11.9015 21.0006 12.0001C21.0006 12.0986 20.9812 12.1962 20.9434 12.2873C20.9057 12.3783 20.8503 12.461 20.7806 12.5307L14.0306 19.2807C13.8899 19.4214 13.699 19.5005 13.5 19.5005C13.301 19.5005 13.1101 19.4214 12.9694 19.2807C12.8286 19.14 12.7496 18.9491 12.7496 18.7501C12.7496 18.551 12.8286 18.3602 12.9694 18.2194L18.4397 12.7501L3.74999 12.7501C3.55108 12.7501 3.36031 12.6711 3.21966 12.5304C3.07901 12.3897 2.99999 12.199 2.99999 12.0001Z" fill="white"/>
</svg>
