<svg width="49" height="48" viewBox="0 0 49 48" fill="none" xmlns="http://www.w3.org/2000/svg">
<path fill-rule="evenodd" clip-rule="evenodd" d="M24.1618 31.9126C24.773 31.8316 26.4298 31.7176 28.7825 32.3573C28.7593 33.4426 29.162 34.5346 29.99 35.3626L40.862 46.2346C41.0615 46.4341 41.3795 46.5751 41.828 46.4858C42.425 46.3666 43.6453 45.5723 44.8393 44.3783C46.0333 43.1843 46.8275 41.9641 46.946 41.3678C47.036 40.9186 46.895 40.6006 46.6955 40.4011L35.8235 29.5291C34.9955 28.7011 33.9035 28.2991 32.8183 28.3216C32.1785 25.9688 32.2925 24.3128 32.3735 23.7008C34.0535 18.9488 32.9938 13.4408 29.1943 9.64207C23.9263 4.37332 15.371 4.37332 10.103 9.64207C4.83426 14.9101 4.83426 23.4653 10.103 28.7333C13.9018 32.5328 19.4098 33.5926 24.1618 31.9126ZM30.9365 26.5966C30.4393 27.3526 29.8588 28.0696 29.1943 28.7333C28.5305 29.3978 27.8135 29.9783 27.0575 30.4756C27.668 30.5581 28.3475 30.6886 29.087 30.8858C29.2888 30.3916 29.5895 29.9296 29.99 29.5291C30.3905 29.1286 30.8525 28.8278 31.346 28.6261C31.1488 27.8866 31.019 27.2071 30.9365 26.5966ZM11.6938 11.2328C16.0843 6.84232 23.213 6.84232 27.6035 11.2328C31.994 15.6233 31.994 22.7521 27.6035 27.1426C23.213 31.5331 16.0843 31.5331 11.6938 27.1426C7.30326 22.7521 7.30326 15.6233 11.6938 11.2328ZM19.469 23.9753C19.9775 23.9753 20.3908 24.3886 20.3908 24.8978C20.3908 25.4071 19.9775 25.8203 19.469 25.8203C18.9598 25.8203 18.5465 25.4071 18.5465 24.8978C18.5465 24.3886 18.9598 23.9753 19.469 23.9753ZM18.0598 16.8263C18.0425 16.1116 18.311 15.5896 18.725 15.2836C19.376 14.8036 20.3488 14.8238 20.8768 15.4186C21.1033 15.6743 21.2345 16.0358 21.2383 16.4933C21.2473 17.5906 20.7328 18.2318 20.2288 18.8956C19.5508 19.7903 18.8735 20.7098 18.7895 22.2451C18.767 22.6591 19.085 23.0123 19.4983 23.0348C19.9115 23.0573 20.2655 22.7401 20.288 22.3268C20.351 21.1606 20.909 20.4811 21.4243 19.8016C22.1143 18.8918 22.751 17.9843 22.7383 16.4813C22.7308 15.5978 22.436 14.9161 21.998 14.4226C20.975 13.2706 19.0963 13.1461 17.8348 14.0761C17.0788 14.6341 16.529 15.5581 16.5598 16.8616C16.5695 17.2756 16.9138 17.6033 17.3278 17.5936C17.741 17.5838 18.0695 17.2403 18.0598 16.8263ZM37.7548 13.4648L43.7548 11.9648C44.1568 11.8643 44.4013 11.4571 44.3008 11.0551C44.2003 10.6538 43.793 10.4093 43.391 10.5098L37.391 12.0098C36.9898 12.1103 36.7453 12.5176 36.8458 12.9196C36.9463 13.3208 37.3535 13.5653 37.7548 13.4648ZM36.5143 8.84407L44.7643 2.84407C45.0988 2.60032 45.173 2.13082 44.93 1.79632C44.6863 1.46107 44.2168 1.38757 43.8823 1.63057L35.6323 7.63057C35.297 7.87432 35.2235 8.34382 35.4665 8.67832C35.7103 9.01357 36.1798 9.08707 36.5143 8.84407ZM32.966 6.37282L35.216 2.62282C35.429 2.26807 35.3143 1.80682 34.9588 1.59382C34.604 1.38157 34.1428 1.49632 33.9298 1.85107L31.6798 5.60107C31.4668 5.95657 31.5823 6.41782 31.937 6.63007C32.2925 6.84307 32.753 6.72832 32.966 6.37282Z" fill="white" fill-opacity="0.6"/>
</svg>
